# xmcd
#
# Track frame offsets:
#	150
#	44230
#	60490
#	82264
#	96220
#	111736
#	125781
#	149347
#	164625
#	175129
#	192434
#	206729
#
# Disc length: 2940
#
# Revision: 1
# Processed by: cddbd v1.5.1PL0 Copyright (c) Steve Scherf et al.
# Submitted via: CDex 1.51
# Normalized: r0:DSETVAR1,TDELIM( - )
#
DISCID=c60b7a0c
DTITLE=Various Artist - Women in Jazz
DYEAR=2001
DGENRE=Jazz
TTITLE0=Dinah Washington - Lover Come Back to Me
TTITLE1=Ella Fitzgerald - Moonlight in Vermont
TTITLE2=Carmen McRae - How Long Has This Been Going On
TTITLE3=Sarah Vaughan - It Might As Well Be Spring
TTITLE4=Lena Horne - I Can't Give You Anything But Love
TTITLE5=Ella Fitzgerald - Stairway to the Stars
TTITLE6=Carmen McRae - New York State of Mind
TTITLE7=Billie Holiday - Don't Explain
TTITLE8=Sarah Vaughan - When Your Lover Has Gone
TTITLE9=Ella Fitzgerald - A Fine Romance
TTITLE10=Lena Horne - More Than You Know
TTITLE11=Billie Holiday - Georgia On My Mind
EXTD=YEAR: 2001
EXTT0=
EXTT1=
EXTT2=
EXTT3=
EXTT4=
EXTT5=
EXTT6=
EXTT7=
EXTT8=
EXTT9=
EXTT10=
EXTT11=
PLAYORDER=
